<?xml version="1.0" standalone="no" ?>
<!DOCTYPE svg PUBLIC "-//W3C//DTD SVG 1.1//EN" "http://www.w3.org/Graphics/SVG/1.1/DTD/svg11.dtd">
<svg width="109px" height="196px" viewBox="0 0 109 196" style="background-color: #ffffff00" xmlns="http://www.w3.org/2000/svg" xmlns:xlink="http://www.w3.org/1999/xlink" version="1.1" >
<text x="0" y="0" stroke="none" fill="#000000" transform="matrix(0.05 0 0 0.05 46.6165 57.9689)" font-style="normal" font-weight="normal" font-size="120px" font-family="Arial" >
O</text>
<path stroke="none" fill="#000000" transform="matrix(0.05 0 0 0.05 -27 -58)" d="M 1722.44,2174.42 L 1728.44,2184.81 L 1589.49,2265.06 L 1583.49,2254.67 L 1722.44,2174.42 Z " />
<path stroke="none" fill="#000000" transform="matrix(0.05 0 0 0.05 -27 -58)" d="M 1703,2140.76 L 1709,2151.15 L 1570.05,2231.4 L 1564.05,2221.01 L 1703,2140.76 Z " />
<path stroke="none" fill="#000000" transform="matrix(0.05 0 0 0.05 -27 -58)" d="M 1700,2171.87 L 1712,2164.93 L 1893.2,2269.47 L 1893.2,2283.33 L 1700,2171.87 Z " />
<text x="0" y="0" stroke="none" fill="#000000" transform="matrix(0.05 0 0 0.05 51.8005 41.7689)" font-style="normal" font-weight="normal" font-size="120px" font-family="Arial" >
HN</text>
<path stroke="none" fill="#000000" transform="matrix(0.05 0 0 0.05 -27 -58)" d="M 1712,2164.93 L 1700,2171.87 L 1700,2018.25 L 1712,2018.25 L 1712,2164.93 Z " />
<text x="0" y="0" stroke="none" fill="#000000" transform="matrix(0.05 0 0 0.05 74.8435 52.5689)" font-style="normal" font-weight="normal" font-size="120px" font-family="Arial" >
Cl</text>
<path stroke="none" fill="#000000" transform="matrix(0.05 0 0 0.05 -27 -58)" d="M 1893.2,2283.33 L 1893.2,2269.47 L 2020.7,2195.84 L 2026.7,2206.23 L 1893.2,2283.33 Z " />
<path stroke="none" fill="#000000" transform="matrix(0.05 0 0 0.05 -27 -58)" d="M 1890.01,1564.93 L 1901.99,1571.87 L 1901.61,1795.48 L 1895.6,1799.2 L 1889.61,1796.33 L 1890.01,1564.93 Z " />
<path stroke="none" fill="#000000" transform="matrix(0.05 0 0 0.05 -27 -58)" d="M 1931.5,1592.41 L 1943.5,1592.43 L 1943.19,1773.48 L 1931.19,1773.46 L 1931.5,1592.41 Z " />
<path stroke="none" fill="#000000" transform="matrix(0.05 0 0 0.05 -27 -58)" d="M 1896.38,1806.29 L 1895.6,1799.2 L 1901.61,1795.48 L 2082.99,1885.59 L 2083.41,1899.21 L 1896.38,1806.29 Z " />
<path stroke="none" fill="#000000" transform="matrix(0.05 0 0 0.05 -27 -58)" d="M 2083.41,1899.21 L 2082.99,1885.59 L 2264.2,1780.94 L 2276.2,1787.86 L 2083.41,1899.21 Z " />
<path stroke="none" fill="#000000" transform="matrix(0.05 0 0 0.05 -27 -58)" d="M 2084.82,1853.51 L 2078.82,1843.11 L 2228.33,1756.77 L 2234.33,1767.16 L 2084.82,1853.51 Z " />
<path stroke="none" fill="#000000" transform="matrix(0.05 0 0 0.05 -27 -58)" d="M 2276.2,1787.86 L 2264.2,1780.94 L 2264.2,1571.86 L 2270.2,1568.4 L 2276.2,1571.86 L 2276.2,1787.86 Z " />
<path stroke="none" fill="#000000" transform="matrix(0.05 0 0 0.05 -27 -58)" d="M 2270.2,1561.47 L 2270.2,1568.4 L 2264.2,1571.86 L 2083.2,1467.33 L 2083.2,1460.4 L 2089.2,1456.94 L 2270.2,1561.47 Z " />
<path stroke="none" fill="#000000" transform="matrix(0.05 0 0 0.05 -27 -58)" d="M 2234.33,1585.64 L 2228.33,1596.03 L 2080.19,1510.48 L 2086.19,1500.09 L 2234.33,1585.64 Z " />
<path stroke="none" fill="#000000" transform="matrix(0.05 0 0 0.05 -27 -58)" d="M 2077.2,1456.93 L 2083.2,1460.4 L 2083.2,1467.33 L 1901.99,1571.87 L 1890.01,1564.93 L 2077.2,1456.93 Z " />
<path stroke="none" fill="#000000" transform="matrix(0.05 0 0 0.05 -27 -58)" d="M 1770.11,1908.31 L 1762.56,1898.98 L 1889.61,1796.33 L 1895.6,1799.2 L 1896.38,1806.29 L 1770.11,1908.31 Z " />
<text x="0" y="0" stroke="none" fill="#000000" transform="matrix(0.05 0 0 0.05 74.9935 6.36891)" font-style="normal" font-weight="normal" font-size="120px" font-family="Arial" >
Cl</text>
<path stroke="none" fill="#000000" transform="matrix(0.05 0 0 0.05 -27 -58)" d="M 2089.2,1456.94 L 2083.2,1460.4 L 2077.2,1456.93 L 2077.2,1313.52 L 2089.2,1313.52 L 2089.2,1456.94 Z " />
<text x="0" y="0" stroke="none" fill="#000000" transform="matrix(0.05 0 0 0.05 93.5265 17.1689)" font-style="normal" font-weight="normal" font-size="120px" font-family="Arial" >
OMe</text>
<path stroke="none" fill="#000000" transform="matrix(0.05 0 0 0.05 -27 -58)" d="M 2276.2,1571.86 L 2270.2,1568.4 L 2270.2,1561.47 L 2395.31,1489.22 L 2401.31,1499.61 L 2276.2,1571.86 Z " />
<path stroke="none" fill="#000000" transform="matrix(0.05 0 0 0.05 -27 -58)" d="M 788.2,4766.93 L 788.2,4753.07 L 969.2,4648.54 L 981.2,4655.46 L 788.2,4766.93 Z " />
<path stroke="none" fill="#000000" transform="matrix(0.05 0 0 0.05 -27 -58)" d="M 791.2,4720.31 L 785.199,4709.92 L 933.329,4624.37 L 939.33,4634.76 L 791.2,4720.31 Z " />
<path stroke="none" fill="#000000" transform="matrix(0.05 0 0 0.05 -27 -58)" d="M 981.2,4655.46 L 969.2,4648.54 L 969.2,4439.46 L 975.2,4436 L 981.2,4439.47 L 981.2,4655.46 Z " />
<path stroke="none" fill="#000000" transform="matrix(0.05 0 0 0.05 -27 -58)" d="M 975.201,4429.07 L 975.2,4436 L 969.2,4439.46 L 788.2,4334.93 L 788.2,4321.07 L 975.201,4429.07 Z " />
<path stroke="none" fill="#000000" transform="matrix(0.05 0 0 0.05 -27 -58)" d="M 939.33,4453.24 L 933.329,4463.63 L 785.199,4378.08 L 791.2,4367.69 L 939.33,4453.24 Z " />
<path stroke="none" fill="#000000" transform="matrix(0.05 0 0 0.05 -27 -58)" d="M 788.2,4321.07 L 788.2,4334.93 L 607.2,4439.46 L 595.2,4432.54 L 788.2,4321.07 Z " />
<path stroke="none" fill="#000000" transform="matrix(0.05 0 0 0.05 -27 -58)" d="M 595.2,4432.54 L 607.2,4439.46 L 607.2,4648.54 L 595.2,4655.46 L 595.2,4432.54 Z " />
<path stroke="none" fill="#000000" transform="matrix(0.05 0 0 0.05 -27 -58)" d="M 634.08,4458.44 L 646.08,4458.44 L 646.08,4629.56 L 634.08,4629.56 L 634.08,4458.44 Z " />
<path stroke="none" fill="#000000" transform="matrix(0.05 0 0 0.05 -27 -58)" d="M 595.2,4655.46 L 607.2,4648.54 L 788.2,4753.07 L 788.2,4766.93 L 595.2,4655.46 Z " />
<path stroke="none" fill="#000000" transform="matrix(0.05 0 0 0.05 -27 -58)" d="M 981.2,4439.47 L 975.2,4436 L 975.201,4429.07 L 1156.4,4324.53 L 1168.4,4331.47 L 981.2,4439.47 Z " />
<path stroke="none" fill="#000000" transform="matrix(0.05 0 0 0.05 -27 -58)" d="M 1168.4,4331.47 L 1156.4,4324.53 L 1156.4,4108.54 L 1168.4,4115.46 L 1168.4,4331.47 Z " />
<text x="0" y="0" stroke="none" fill="#000000" transform="matrix(0.05 0 0 0.05 38.3035 139.391)" font-style="normal" font-weight="normal" font-size="120px" font-family="Arial" >
H</text>
<text x="0" y="0" stroke="none" fill="#000000" transform="matrix(0.05 0 0 0.05 38.3035 144.349)" font-style="normal" font-weight="normal" font-size="120px" font-family="Arial" >
N</text>
<path stroke="none" fill="#000000" transform="matrix(0.05 0 0 0.05 -27 -58)" d="M 1168.4,4115.46 L 1156.4,4108.54 L 1281.15,4036.49 L 1287.15,4046.88 L 1168.4,4115.46 Z " />
<path stroke="none" fill="#000000" transform="matrix(0.05 0 0 0.05 -27 -58)" d="M 1410.62,4046.28 L 1416.62,4035.89 L 1536.4,4105.07 L 1536.4,4118.93 L 1410.62,4046.28 Z " />
<path stroke="none" fill="#000000" transform="matrix(0.05 0 0 0.05 -27 -58)" d="M 1536.4,4118.93 L 1536.4,4105.07 L 1717.4,4000.54 L 1723.4,4004 L 1723.4,4010.93 L 1536.4,4118.93 Z " />
<text x="0" y="0" stroke="none" fill="#000000" transform="matrix(0.05 0 0 0.05 66.3635 149.749)" font-style="normal" font-weight="normal" font-size="120px" font-family="Arial" >
N</text>
<path stroke="none" fill="#000000" transform="matrix(0.05 0 0 0.05 -27 -58)" d="M 1723.4,4010.93 L 1723.4,4004 L 1729.4,4000.53 L 1847.56,4068.7 L 1841.56,4079.1 L 1723.4,4010.93 Z " />
<path stroke="none" fill="#000000" transform="matrix(0.05 0 0 0.05 -27 -58)" d="M 1978.6,4079.66 L 1972.6,4069.27 L 2097.6,3997.07 L 2097.6,4010.93 L 1978.6,4079.66 Z " />
<path stroke="none" fill="#000000" transform="matrix(0.05 0 0 0.05 -27 -58)" d="M 2097.6,4010.93 L 2097.6,3997.07 L 2284.6,4105.07 L 2284.6,4118.93 L 2097.6,4010.93 Z " />
<text x="0" y="0" stroke="none" fill="#000000" transform="matrix(0.05 0 0 0.05 94.4235 144.349)" font-style="normal" font-weight="normal" font-size="120px" font-family="Arial" >
Cl</text>
<path stroke="none" fill="#000000" transform="matrix(0.05 0 0 0.05 -27 -58)" d="M 2284.6,4118.93 L 2284.6,4105.07 L 2412.29,4031.41 L 2418.29,4041.8 L 2284.6,4118.93 Z " />
<text x="0" y="0" stroke="none" fill="#000000" transform="matrix(0.05 0 0 0.05 47.4865 160.549)" font-style="normal" font-weight="normal" font-size="120px" font-family="Arial" >
O</text>
<path stroke="none" fill="#000000" transform="matrix(0.05 0 0 0.05 -27 -58)" d="M 1549.84,4100.77 L 1561.84,4100.77 L 1561.84,4259.49 L 1549.84,4259.49 L 1549.84,4100.77 Z " />
<path stroke="none" fill="#000000" transform="matrix(0.05 0 0 0.05 -27 -58)" d="M 1510.96,4100.77 L 1522.96,4100.77 L 1522.96,4259.49 L 1510.96,4259.49 L 1510.96,4100.77 Z " />
<text x="0" y="0" stroke="none" fill="#000000" transform="matrix(0.05 0 0 0.05 75.5465 133.549)" font-style="normal" font-weight="normal" font-size="120px" font-family="Arial" >
O</text>
<path stroke="none" fill="#000000" transform="matrix(0.05 0 0 0.05 -27 -58)" d="M 2084.16,4015.23 L 2072.16,4015.23 L 2072.16,3857.09 L 2084.16,3857.09 L 2084.16,4015.23 Z " />
<path stroke="none" fill="#000000" transform="matrix(0.05 0 0 0.05 -27 -58)" d="M 2123.04,4015.23 L 2111.04,4015.23 L 2111.04,3857.09 L 2123.04,3857.09 L 2123.04,4015.23 Z " />
<path stroke="none" fill="#000000" transform="matrix(0.05 0 0 0.05 -27 -58)" d="M 1729.4,4000.53 L 1723.4,4004 L 1717.4,4000.54 L 1717.4,3791.46 L 1723.4,3788 L 1729.4,3790.49 L 1729.4,4000.53 Z " />
<text x="0" y="0" stroke="none" fill="#000000" transform="matrix(0.05 0 0 0.05 64.809 125.909)" font-style="normal" font-weight="normal" font-size="120px" font-family="Arial" >
S</text>
<path stroke="none" fill="#000000" transform="matrix(0.05 0 0 0.05 -27 -58)" d="M 1729.4,3790.49 L 1723.4,3788 L 1722.42,3780.5 L 1823.65,3679.26 L 1832.14,3687.75 L 1729.4,3790.49 Z " />
<path stroke="none" fill="#000000" transform="matrix(0.05 0 0 0.05 -27 -58)" d="M 1840.16,3576.83 L 1830.54,3584 L 1744.13,3468.12 L 1749.07,3454.68 L 1840.16,3576.83 Z " />
<path stroke="none" fill="#000000" transform="matrix(0.05 0 0 0.05 -27 -58)" d="M 1749.07,3454.68 L 1744.13,3468.12 L 1565.48,3509.01 L 1553.72,3499.39 L 1749.07,3454.68 Z " />
<path stroke="none" fill="#000000" transform="matrix(0.05 0 0 0.05 -27 -58)" d="M 1731.03,3494.23 L 1733.71,3505.93 L 1594.8,3537.72 L 1592.12,3526.03 L 1731.03,3494.23 Z " />
<path stroke="none" fill="#000000" transform="matrix(0.05 0 0 0.05 -27 -58)" d="M 1548.91,3694.01 L 1561.09,3687.19 L 1722.42,3780.5 L 1723.4,3788 L 1717.4,3791.46 L 1548.91,3694.01 Z " />
<path stroke="none" fill="#000000" transform="matrix(0.05 0 0 0.05 -27 -58)" d="M 1587.51,3675.89 L 1593.52,3665.5 L 1720.66,3739.03 L 1714.65,3749.42 L 1587.51,3675.89 Z " />
<path stroke="none" fill="#000000" transform="matrix(0.05 0 0 0.05 -27 -58)" d="M 1904.6,4177.85 L 1916.6,4177.85 L 1916.6,4324.54 L 1910.6,4328 L 1904.6,4324.53 L 1904.6,4177.85 Z " />
<path stroke="none" fill="#000000" transform="matrix(0.05 0 0 0.05 -27 -58)" d="M 1553.72,3499.39 L 1565.48,3509.01 L 1561.09,3687.19 L 1548.91,3694.01 L 1553.72,3499.39 Z " />
<path stroke="none" fill="#000000" transform="matrix(0.05 0 0 0.05 -27 -58)" d="M 1904.6,4324.53 L 1910.6,4328 L 1910.6,4334.93 L 1729.4,4439.47 L 1717.4,4432.53 L 1904.6,4324.53 Z " />
<path stroke="none" fill="#000000" transform="matrix(0.05 0 0 0.05 -27 -58)" d="M 1907.59,4367.72 L 1913.59,4378.11 L 1765.3,4463.66 L 1759.3,4453.27 L 1907.59,4367.72 Z " />
<path stroke="none" fill="#000000" transform="matrix(0.05 0 0 0.05 -27 -58)" d="M 1717.4,4432.53 L 1729.4,4439.47 L 1729.4,4648.53 L 1717.4,4655.47 L 1717.4,4432.53 Z " />
<path stroke="none" fill="#000000" transform="matrix(0.05 0 0 0.05 -27 -58)" d="M 1717.4,4655.47 L 1729.4,4648.53 L 1910.6,4753.07 L 1910.6,4760 L 1904.6,4763.47 L 1717.4,4655.47 Z " />
<path stroke="none" fill="#000000" transform="matrix(0.05 0 0 0.05 -27 -58)" d="M 1759.3,4634.73 L 1765.3,4624.33 L 1913.59,4709.89 L 1907.59,4720.28 L 1759.3,4634.73 Z " />
<path stroke="none" fill="#000000" transform="matrix(0.05 0 0 0.05 -27 -58)" d="M 1916.6,4763.46 L 1910.6,4760 L 1910.6,4753.07 L 2091.6,4648.54 L 2103.6,4655.46 L 1916.6,4763.46 Z " />
<path stroke="none" fill="#000000" transform="matrix(0.05 0 0 0.05 -27 -58)" d="M 2103.6,4655.46 L 2091.6,4648.54 L 2091.6,4439.46 L 2103.6,4432.54 L 2103.6,4655.46 Z " />
<path stroke="none" fill="#000000" transform="matrix(0.05 0 0 0.05 -27 -58)" d="M 2064.72,4629.56 L 2052.72,4629.56 L 2052.72,4458.44 L 2064.72,4458.44 L 2064.72,4629.56 Z " />
<path stroke="none" fill="#000000" transform="matrix(0.05 0 0 0.05 -27 -58)" d="M 2103.6,4432.54 L 2091.6,4439.46 L 1910.6,4334.93 L 1910.6,4328 L 1916.6,4324.54 L 2103.6,4432.54 Z " />
<text x="0" y="0" stroke="none" fill="#000000" transform="matrix(0.05 0 0 0.05 66.1965 192.949)" font-style="normal" font-weight="normal" font-size="120px" font-family="Arial" >
OMe</text>
<path stroke="none" fill="#000000" transform="matrix(0.05 0 0 0.05 -27 -58)" d="M 1904.6,4763.47 L 1910.6,4760 L 1916.6,4763.46 L 1916.6,4907.49 L 1904.6,4907.49 L 1904.6,4763.47 Z " />
</svg>
